<svg width="73" height="16" viewBox="0 0 73 16" fill="none" xmlns="http://www.w3.org/2000/svg">
<path fill-rule="evenodd" clip-rule="evenodd" d="M9.01266 4.05063H4.05063V11.9494H9.01266C11.1938 11.9494 12.962 10.1812 12.962 8C12.962 5.81883 11.1938 4.05063 9.01266 4.05063ZM0 0V16H9.01266C13.4309 16 17.0127 12.4183 17.0127 8C17.0127 3.58172 13.4309 0 9.01266 0H0ZM36.6582 0H40.7089V16H36.6582V0ZM48.6076 0H44.557V3.44304V6.48101V9.92405V16H48.6076V9.92405H56.7089V6.48101H48.6076V3.44304H57.924V0H48.6076ZM63.7975 0H59.1392V3.44304H63.7975V16H67.8481V3.44304H72.5063V0H67.8481H63.7975ZM19.1392 10.8354V16H23.1899V10.8354H26.1139L29.2658 16H33.924L30.533 10.4436C32.5211 9.64116 33.924 7.69328 33.924 5.41772C33.924 2.4256 31.4985 0 28.5063 0H23.1899H19.1392V10.8354ZM28.5063 6.78481H23.1899V4.05063H28.5063C29.2614 4.05063 29.8734 4.6627 29.8734 5.41772C29.8734 6.17274 29.2614 6.78481 28.5063 6.78481Z" fill="white"/>
</svg>
