<svg width="177" height="24" viewBox="0 0 177 24" fill="none" xmlns="http://www.w3.org/2000/svg">
<path d="M13.248 2.78397C13.248 0.863972 11.424 0.383972 9.984 0.383972V0.671972C10.848 0.671972 11.52 0.959972 11.52 1.63197C11.52 2.01597 11.232 2.59197 10.368 2.59197C9.696 2.59197 8.256 2.20797 7.2 1.82397C5.952 1.34397 4.8 0.959972 3.84 0.959972C1.92 0.959972 0.576 2.39997 0.576 4.03197C0.576 5.47197 1.632 5.95197 2.016 6.14397L2.112 5.95197C1.92 5.75997 1.632 5.56797 1.632 4.99197C1.632 4.60797 2.016 3.93597 2.976 3.93597C3.84 3.93597 4.992 4.31997 6.528 4.79997C7.872 5.18397 9.312 5.47197 10.08 5.56797V8.54397L8.64 9.79197V9.88797L10.08 11.136V15.264C9.312 15.744 8.448 15.84 7.68 15.84C6.24 15.84 4.992 15.456 3.936 14.304L7.872 12.384V5.75997L3.072 7.87197C3.456 6.62397 4.512 5.75997 5.568 5.18397L5.472 4.89597C2.592 5.66397 0 8.35197 0 11.616C0 15.456 3.168 18.336 6.72 18.336C10.56 18.336 13.056 15.264 13.056 12.096H12.864C12.288 13.344 11.424 14.496 10.368 15.072V11.136L11.904 9.88797V9.79197L10.368 8.54397V5.56797C11.808 5.56797 13.248 4.60797 13.248 2.78397ZM4.896 13.344L3.744 13.92C3.072 13.056 2.688 11.904 2.688 10.272C2.688 9.59997 2.688 8.83197 2.88 8.25597L4.896 7.39197V13.344ZM15.072 15.552L13.824 16.512L14.016 16.704L14.592 16.224L16.704 18.144L19.584 16.224L19.488 16.032L18.72 16.512L17.76 15.552V9.02397L18.528 8.44797L20.16 9.79197V15.648C20.16 19.296 19.392 19.872 17.76 20.448V20.736C20.448 20.832 22.944 19.968 22.944 15.264V8.92797L23.808 8.25597L23.616 8.06397L22.848 8.63997L20.448 6.62397L17.76 8.63997V0.767972H17.568L14.208 3.07197V3.26397C14.592 3.45597 15.168 3.64797 15.168 4.70397L15.072 15.552ZM32.64 14.496L30.24 16.32L27.84 14.4V13.248L32.352 10.176V10.08L30.048 6.62397L25.056 9.31197V15.648L24.096 16.416L24.288 16.608L25.152 15.936L28.416 18.336L32.736 14.88L32.64 14.496ZM27.84 12.864V8.15997L28.032 8.06397L30.144 11.424L27.84 12.864ZM50.976 1.91997C50.976 1.63197 50.88 1.34397 50.784 1.05597H50.592C50.304 1.82397 49.92 2.20797 48.96 2.20797C48.096 2.20797 47.52 1.72797 47.136 1.34397L44.352 4.51197L44.544 4.70397L45.504 3.83997C46.08 4.31997 46.56 4.70397 47.904 4.79997V12.768L42.24 3.07197C41.76 2.30397 41.088 1.24797 39.744 1.24797C38.208 1.24797 36.864 2.59197 37.056 4.70397H37.344C37.44 4.12797 37.728 3.45597 38.4 3.45597C38.88 3.45597 39.36 3.93597 39.648 4.41597V7.58397C37.92 7.58397 36.768 8.35197 36.768 9.79197C36.768 10.56 37.152 11.712 38.304 12V11.808C38.112 11.616 38.016 11.424 38.016 11.136C38.016 10.656 38.4 10.272 39.072 10.272H39.552V14.304C37.536 14.304 35.904 15.456 35.904 17.376C35.904 19.2 37.44 20.064 39.168 19.968V19.776C38.112 19.68 37.632 19.2 37.632 18.528C37.632 17.664 38.208 17.28 38.976 17.28C39.744 17.28 40.416 17.76 40.896 18.336L43.68 15.264L43.488 15.072L42.816 15.84C41.76 14.88 41.184 14.592 39.936 14.4V4.79997L47.616 18.24H48.192V4.79997C49.632 4.70397 50.976 3.55197 50.976 1.91997ZM57.984 14.496L55.584 16.32L53.184 14.4V13.248L57.696 10.176V10.08L55.392 6.62397L50.4 9.31197V15.648L49.44 16.416L49.632 16.608L50.496 15.936L53.76 18.336L58.08 14.88L57.984 14.496ZM53.184 12.864V8.15997L53.376 8.06397L55.488 11.424L53.184 12.864ZM73.632 7.67997L72.96 8.15997L71.136 6.62397L69.024 8.54397L69.888 9.40797V16.608L67.584 15.168V9.21597L68.352 8.73597L66.144 6.62397L64.032 8.54397L64.896 9.40797V16.32L64.608 16.512L62.592 15.072V9.31197C62.592 7.96797 61.92 7.58397 61.152 7.10397C60.48 6.62397 60.096 6.33597 60.096 5.66397C60.096 5.08797 60.672 4.79997 60.96 4.60797V4.41597C60.192 4.41597 58.176 5.18397 58.176 7.00797C58.176 7.96797 58.656 8.35197 59.136 8.83197C59.616 9.31197 60.096 9.69597 60.096 10.56V16.128L59.04 16.896L59.232 17.088L60.192 16.32L62.4 18.24L64.8 16.608L67.488 18.24L72.576 15.264V8.83197L73.824 7.87197L73.632 7.67997ZM91.488 2.39997L90.528 3.26397L88.416 1.34397L85.248 3.64797V1.53597H84.96L85.056 17.088C84.768 17.088 83.904 16.896 83.232 16.704L83.04 3.74397C83.04 2.78397 82.368 1.43997 80.64 1.43997C78.912 1.43997 77.76 2.78397 77.76 4.12797H78.048C78.144 3.55197 78.432 3.07197 79.008 3.07197C79.584 3.07197 80.064 3.45597 80.064 4.70397V8.44797C78.336 8.54397 77.28 9.50397 77.28 10.752C77.28 11.52 77.664 12.672 78.816 12.672V12.48C78.432 12.288 78.336 12 78.336 11.808C78.336 11.232 78.816 11.04 79.584 11.04H79.968V16.992C78.528 17.472 77.952 18.528 77.952 19.68C77.952 21.312 79.2 22.464 81.12 22.464C82.464 22.464 83.616 22.272 84.768 21.984C85.728 21.792 86.976 21.504 87.552 21.504C88.32 21.504 88.608 21.888 88.608 22.368C88.608 23.04 88.32 23.328 87.936 23.424V23.616C89.472 23.328 90.432 22.368 90.432 20.928C90.432 19.488 88.992 18.624 87.456 18.624C86.688 18.624 85.056 18.912 83.904 19.104C82.56 19.392 81.216 19.584 80.832 19.584C80.16 19.584 79.392 19.296 79.392 18.336C79.392 17.568 80.064 16.896 81.696 16.896C82.56 16.896 83.616 16.992 84.672 17.28C85.824 17.568 86.88 17.856 87.84 17.856C89.28 17.856 90.528 17.376 90.528 15.36V3.55197L91.68 2.59197L91.488 2.39997ZM87.552 8.25597C87.264 8.54397 86.88 8.83197 86.4 8.83197C85.92 8.83197 85.44 8.54397 85.248 8.25597V4.03197L86.208 3.35997L87.552 4.60797V8.25597ZM87.552 11.136C87.36 10.944 86.88 10.656 86.4 10.656C85.92 10.656 85.44 10.944 85.248 11.136V8.63997C85.44 8.83197 85.92 9.11997 86.4 9.11997C86.88 9.11997 87.36 8.83197 87.552 8.63997V11.136ZM87.552 15.648C87.552 16.416 87.072 17.184 86.016 17.184H85.248V11.52C85.44 11.328 85.92 11.04 86.4 11.04C86.88 11.04 87.264 11.328 87.552 11.52V15.648ZM100.704 8.83197L97.632 6.62397L92.928 9.31197V15.552L91.968 16.32L92.064 16.512L92.832 15.936L95.904 18.24L100.704 15.36V8.83197ZM95.52 14.88V7.96797L97.92 9.69597V16.512L95.52 14.88ZM109.824 6.81597H109.632C109.344 7.00797 109.056 7.19997 108.768 7.19997C108.384 7.19997 107.904 7.00797 107.712 6.71997H107.52L105.888 8.54397L104.256 6.71997L101.376 8.63997L101.472 8.83197L102.24 8.35197L103.2 9.40797V15.456L101.952 16.416L102.144 16.608L102.72 16.128L105.024 18.048L108 16.032L107.904 15.84L107.04 16.32L105.888 15.36V8.63997C106.368 9.11997 106.944 9.59997 107.616 9.59997C108.96 9.69597 109.728 8.35197 109.824 6.81597ZM121.344 16.032L118.08 18.24L113.664 11.52L116.832 6.62397H117.024C117.408 7.00797 117.984 7.39197 118.656 7.39197C119.328 7.39197 119.808 7.00797 120.096 6.62397H120.288C120.192 8.54397 118.848 9.69597 117.888 9.69597C116.928 9.69597 116.448 9.21597 115.872 8.92797L115.584 9.40797L120.384 16.512L121.344 15.936V16.032ZM110.784 15.552L109.536 16.512L109.728 16.704L110.304 16.224L112.416 18.144L115.296 16.224L115.104 16.032L114.336 16.512L113.376 15.552V0.767972H113.28L109.824 3.07197V3.26397C110.208 3.45597 110.784 3.55197 110.784 4.70397V15.552ZM137.28 2.78397C137.28 0.863972 135.456 0.383972 134.016 0.383972V0.671972C134.88 0.671972 135.552 0.959972 135.552 1.63197C135.552 2.01597 135.264 2.59197 134.4 2.59197C133.728 2.59197 132.288 2.20797 131.232 1.82397C129.984 1.43997 128.832 1.05597 127.872 1.05597C125.952 1.05597 124.608 2.49597 124.608 4.12797C124.608 5.56797 125.664 6.04797 126.048 6.23997L126.144 6.04797C125.856 5.85597 125.568 5.66397 125.568 5.08797C125.568 4.70397 125.952 4.03197 126.912 4.03197C127.776 4.03197 128.928 4.41597 130.464 4.89597C131.808 5.27997 133.248 5.56797 134.016 5.66397V8.63997L132.576 9.88797V9.98397L134.016 11.232V15.36C133.248 15.84 132.384 15.936 131.616 15.936C130.176 15.936 128.928 15.552 127.872 14.4L131.808 12.48V5.75997L127.008 7.87197C127.488 6.62397 128.544 5.75997 129.504 5.08797L129.408 4.89597C126.528 5.66397 123.936 8.25597 123.936 11.52C123.936 15.36 127.104 18.24 130.656 18.24C134.496 18.24 136.992 15.168 136.992 12H136.8C136.224 13.248 135.36 14.4 134.304 14.976V11.04L135.84 9.79197V9.69597L134.4 8.44797V5.56797C135.84 5.56797 137.28 4.60797 137.28 2.78397ZM128.928 13.344L127.776 13.92C127.104 13.056 126.72 11.904 126.72 10.272C126.72 9.59997 126.816 8.83197 127.008 8.25597L129.024 7.39197L128.928 13.344ZM140.64 1.82397H140.544L138.624 3.45597V3.55197L140.256 5.37597H140.448L142.368 3.74397V3.64797L140.64 1.82397ZM143.52 16.032L142.752 16.512L141.792 15.552V8.92797L142.752 8.25597L142.56 8.06397L141.888 8.63997L140.16 6.62397L137.376 8.54397L137.568 8.83197L138.24 8.35197L139.104 9.40797V15.648L137.856 16.608L137.952 16.8L138.624 16.32L140.736 18.24L143.616 16.32L143.52 16.032ZM159.552 15.936L158.88 16.416L157.824 15.456V8.92797L158.784 8.15997L158.592 7.96797L157.824 8.63997L155.616 6.62397L152.736 8.63997L150.528 6.62397L147.84 8.63997L146.112 6.62397L143.328 8.54397L143.424 8.83197L144.096 8.35197L145.056 9.40797V15.648L144.288 16.416L146.496 18.24L148.608 16.32L147.744 15.456V8.92797L148.608 8.35197L150.048 9.69597V15.456L149.28 16.224L151.488 18.048L153.6 16.128L152.736 15.264V8.92797L153.504 8.44797L155.04 9.79197V15.552L154.368 16.224L156.576 18.24L159.552 16.224V15.936ZM167.904 14.496L165.504 16.32L163.104 14.4V13.248L167.616 10.176V10.08L165.312 6.62397L160.32 9.31197V15.84L163.68 18.24L168 14.784L167.904 14.496ZM163.104 12.864V8.15997L163.296 8.06397L165.408 11.424L163.104 12.864ZM176.64 12L174.816 10.56C176.064 9.50397 176.544 8.06397 176.544 7.10397V6.52797H176.352C176.16 7.00797 175.776 7.48797 175.008 7.48797C174.24 7.48797 173.76 7.10397 173.28 6.52797L168.96 8.92797V12.384L170.592 13.632C168.96 15.072 168.672 16.032 168.672 16.8C168.672 17.76 169.152 18.432 169.92 18.72L170.016 18.528C169.824 18.336 169.632 18.24 169.632 17.76C169.632 17.472 170.016 16.992 170.784 16.992C171.744 16.992 172.32 17.664 172.608 17.952L176.736 15.456V12H176.64ZM175.584 9.11997C174.912 10.272 173.472 11.424 172.608 12L171.552 11.136V7.77597C171.936 8.73597 172.992 9.50397 174.048 9.50397C174.72 9.50397 175.104 9.40797 175.584 9.11997ZM173.952 16.8C173.472 15.744 172.32 14.976 171.168 14.976C170.88 14.976 170.112 14.976 169.344 15.456C169.824 14.688 171.072 13.344 172.704 12.384L173.856 13.344L173.952 16.8Z" fill="white"/>
</svg>
